<?xml version="1.0" encoding="UTF-8"?>
<svg xmlns="http://www.w3.org/2000/svg" xmlns:xlink="http://www.w3.org/1999/xlink" width="1200pt" height="850.499975pt" viewBox="0 0 1200 850.499975" version="1.2">
<defs>
<clipPath id="clip1">
  <path d="M 0.351562 0 L 1199.644531 0 L 1199.644531 850 L 0.351562 850 Z M 0.351562 0 "/>
</clipPath>
<clipPath id="clip2">
  <path d="M 2323.746094 -1460.863281 C 2666.277344 -1195.09375 3014.949219 -370.132812 2841.382812 387.234375 C 2684.707031 1077.007812 2179.359375 1096.980469 2015.007812 1063.183594 C 1403.675781 937.210938 1491.226562 648.398438 1091.867188 712.917969 C 692.503906 777.441406 -292.078125 648.398438 -252.144531 -445.40625 C -213.742188 -1539.214844 478.996094 -1468.546875 838.425781 -1508.488281 C 1248.539062 -1554.574219 1935.136719 -1763.503906 2323.746094 -1460.863281 Z M 2323.746094 -1460.863281 "/>
</clipPath>
<linearGradient id="linear0" gradientUnits="userSpaceOnUse" x1="138.283" y1="113.110001" x2="216.361553" y2="113.110001" gradientTransform="matrix(-15.360106,0,0,15.36243,3323.688991,-2012.375985)">
<stop offset="0" style="stop-color:rgb(12.893677%,68.054199%,62.934875%);stop-opacity:1;"/>
<stop offset="0.015625" style="stop-color:rgb(12.936401%,68.180847%,63.024902%);stop-opacity:1;"/>
<stop offset="0.03125" style="stop-color:rgb(13.023376%,68.435669%,63.204956%);stop-opacity:1;"/>
<stop offset="0.046875" style="stop-color:rgb(13.110352%,68.690491%,63.38501%);stop-opacity:1;"/>
<stop offset="0.0625" style="stop-color:rgb(13.197327%,68.945312%,63.565063%);stop-opacity:1;"/>
<stop offset="0.078125" style="stop-color:rgb(13.282776%,69.200134%,63.745117%);stop-opacity:1;"/>
<stop offset="0.09375" style="stop-color:rgb(13.369751%,69.454956%,63.925171%);stop-opacity:1;"/>
<stop offset="0.109375" style="stop-color:rgb(13.456726%,69.709778%,64.105225%);stop-opacity:1;"/>
<stop offset="0.125" style="stop-color:rgb(13.542175%,69.9646%,64.286804%);stop-opacity:1;"/>
<stop offset="0.140625" style="stop-color:rgb(13.62915%,70.219421%,64.466858%);stop-opacity:1;"/>
<stop offset="0.15625" style="stop-color:rgb(13.716125%,70.474243%,64.646912%);stop-opacity:1;"/>
<stop offset="0.171875" style="stop-color:rgb(13.803101%,70.729065%,64.826965%);stop-opacity:1;"/>
<stop offset="0.1875" style="stop-color:rgb(13.88855%,70.983887%,65.007019%);stop-opacity:1;"/>
<stop offset="0.203125" style="stop-color:rgb(13.975525%,71.238708%,65.187073%);stop-opacity:1;"/>
<stop offset="0.21875" style="stop-color:rgb(14.0625%,71.49353%,65.367126%);stop-opacity:1;"/>
<stop offset="0.234375" style="stop-color:rgb(14.147949%,71.748352%,65.54718%);stop-opacity:1;"/>
<stop offset="0.25" style="stop-color:rgb(14.234924%,72.003174%,65.727234%);stop-opacity:1;"/>
<stop offset="0.265625" style="stop-color:rgb(14.321899%,72.257996%,65.907288%);stop-opacity:1;"/>
<stop offset="0.28125" style="stop-color:rgb(14.407349%,72.512817%,66.088867%);stop-opacity:1;"/>
<stop offset="0.296875" style="stop-color:rgb(14.494324%,72.767639%,66.268921%);stop-opacity:1;"/>
<stop offset="0.3125" style="stop-color:rgb(14.581299%,73.022461%,66.448975%);stop-opacity:1;"/>
<stop offset="0.328125" style="stop-color:rgb(14.668274%,73.277283%,66.629028%);stop-opacity:1;"/>
<stop offset="0.34375" style="stop-color:rgb(14.753723%,73.532104%,66.809082%);stop-opacity:1;"/>
<stop offset="0.359375" style="stop-color:rgb(14.840698%,73.786926%,66.989136%);stop-opacity:1;"/>
<stop offset="0.375" style="stop-color:rgb(14.927673%,74.041748%,67.169189%);stop-opacity:1;"/>
<stop offset="0.390625" style="stop-color:rgb(15.013123%,74.29657%,67.349243%);stop-opacity:1;"/>
<stop offset="0.40625" style="stop-color:rgb(15.100098%,74.551392%,67.529297%);stop-opacity:1;"/>
<stop offset="0.421875" style="stop-color:rgb(15.187073%,74.806213%,67.710876%);stop-opacity:1;"/>
<stop offset="0.4375" style="stop-color:rgb(15.272522%,75.061035%,67.89093%);stop-opacity:1;"/>
<stop offset="0.453125" style="stop-color:rgb(15.359497%,75.315857%,68.070984%);stop-opacity:1;"/>
<stop offset="0.46875" style="stop-color:rgb(15.446472%,75.570679%,68.251038%);stop-opacity:1;"/>
<stop offset="0.484375" style="stop-color:rgb(15.533447%,75.8255%,68.431091%);stop-opacity:1;"/>
<stop offset="0.5" style="stop-color:rgb(15.618896%,76.080322%,68.611145%);stop-opacity:1;"/>
<stop offset="0.515625" style="stop-color:rgb(15.705872%,76.335144%,68.791199%);stop-opacity:1;"/>
<stop offset="0.53125" style="stop-color:rgb(15.792847%,76.589966%,68.971252%);stop-opacity:1;"/>
<stop offset="0.546875" style="stop-color:rgb(15.878296%,76.844788%,69.151306%);stop-opacity:1;"/>
<stop offset="0.5625" style="stop-color:rgb(15.965271%,77.099609%,69.33136%);stop-opacity:1;"/>
<stop offset="0.578125" style="stop-color:rgb(16.052246%,77.354431%,69.512939%);stop-opacity:1;"/>
<stop offset="0.59375" style="stop-color:rgb(16.139221%,77.609253%,69.692993%);stop-opacity:1;"/>
<stop offset="0.609375" style="stop-color:rgb(16.22467%,77.864075%,69.873047%);stop-opacity:1;"/>
<stop offset="0.625" style="stop-color:rgb(16.311646%,78.118896%,70.053101%);stop-opacity:1;"/>
<stop offset="0.640625" style="stop-color:rgb(16.398621%,78.373718%,70.233154%);stop-opacity:1;"/>
<stop offset="0.65625" style="stop-color:rgb(16.48407%,78.62854%,70.413208%);stop-opacity:1;"/>
<stop offset="0.671875" style="stop-color:rgb(16.571045%,78.883362%,70.593262%);stop-opacity:1;"/>
<stop offset="0.6875" style="stop-color:rgb(16.65802%,79.138184%,70.773315%);stop-opacity:1;"/>
<stop offset="0.703125" style="stop-color:rgb(16.743469%,79.393005%,70.953369%);stop-opacity:1;"/>
<stop offset="0.71875" style="stop-color:rgb(16.830444%,79.647827%,71.133423%);stop-opacity:1;"/>
<stop offset="0.734375" style="stop-color:rgb(16.917419%,79.902649%,71.315002%);stop-opacity:1;"/>
<stop offset="0.75" style="stop-color:rgb(17.004395%,80.157471%,71.495056%);stop-opacity:1;"/>
<stop offset="0.765625" style="stop-color:rgb(17.089844%,80.412292%,71.67511%);stop-opacity:1;"/>
<stop offset="0.78125" style="stop-color:rgb(17.176819%,80.667114%,71.855164%);stop-opacity:1;"/>
<stop offset="0.796875" style="stop-color:rgb(17.263794%,80.921936%,72.035217%);stop-opacity:1;"/>
<stop offset="0.8125" style="stop-color:rgb(17.349243%,81.176758%,72.215271%);stop-opacity:1;"/>
<stop offset="0.828125" style="stop-color:rgb(17.436218%,81.43158%,72.395325%);stop-opacity:1;"/>
<stop offset="0.84375" style="stop-color:rgb(17.523193%,81.686401%,72.575378%);stop-opacity:1;"/>
<stop offset="0.859375" style="stop-color:rgb(17.610168%,81.939697%,72.755432%);stop-opacity:1;"/>
<stop offset="0.875" style="stop-color:rgb(17.695618%,82.194519%,72.935486%);stop-opacity:1;"/>
<stop offset="0.890625" style="stop-color:rgb(17.782593%,82.449341%,73.117065%);stop-opacity:1;"/>
<stop offset="0.90625" style="stop-color:rgb(17.869568%,82.704163%,73.297119%);stop-opacity:1;"/>
<stop offset="0.921875" style="stop-color:rgb(17.955017%,82.958984%,73.477173%);stop-opacity:1;"/>
<stop offset="0.9375" style="stop-color:rgb(18.041992%,83.213806%,73.657227%);stop-opacity:1;"/>
<stop offset="0.953125" style="stop-color:rgb(18.128967%,83.468628%,73.83728%);stop-opacity:1;"/>
<stop offset="0.96875" style="stop-color:rgb(18.214417%,83.72345%,74.017334%);stop-opacity:1;"/>
<stop offset="0.984375" style="stop-color:rgb(18.301392%,83.978271%,74.197388%);stop-opacity:1;"/>
<stop offset="1" style="stop-color:rgb(18.388367%,84.233093%,74.377441%);stop-opacity:1;"/>
</linearGradient>
<clipPath id="clip3">
  <path d="M 0.351562 0 L 1199.644531 0 L 1199.644531 850 L 0.351562 850 Z M 0.351562 0 "/>
</clipPath>
<clipPath id="clip4">
  <path d="M 758 442 L 1138 442 L 1138 490.972656 L 758 490.972656 Z M 758 442 "/>
</clipPath>
<clipPath id="clip5">
  <path d="M 992 150.019531 L 1080 150.019531 L 1080 184 L 992 184 Z M 992 150.019531 "/>
</clipPath>
<clipPath id="clip6">
  <path d="M 1140 252 L 1146.25 252 L 1146.25 261 L 1140 261 Z M 1140 252 "/>
</clipPath>
<clipPath id="clip7">
  <path d="M 916 150.019531 L 965 150.019531 L 965 201 L 916 201 Z M 916 150.019531 "/>
</clipPath>
</defs>
<g id="surface1">
<g clip-path="url(#clip1)" clip-rule="nonzero">
<g clip-path="url(#clip2)" clip-rule="nonzero">
<path style=" stroke:none;fill-rule:nonzero;fill:url(#linear0);" d="M 1199.648438 0 L 1199.648438 850 L 0.351562 850 L 0.351562 0 Z M 1199.648438 0 "/>
</g>
</g>
<g clip-path="url(#clip3)" clip-rule="nonzero">
<path style=" stroke:none;fill-rule:nonzero;fill:rgb(100%,100%,100%);fill-opacity:1;" d="M 2084.128906 1241.386719 C 2091.808594 1241.386719 2099.488281 1235.242188 2099.488281 1227.5625 C 2099.488281 1218.34375 2093.34375 1212.199219 2085.664062 1210.660156 C 2054.945312 1209.125 2025.761719 1204.515625 1996.574219 1198.371094 C 1988.894531 1196.835938 1979.679688 1201.445312 1978.144531 1210.660156 C 1976.609375 1218.34375 1981.214844 1227.5625 1990.433594 1229.097656 C 2019.617188 1235.242188 2050.335938 1239.851562 2084.128906 1241.386719 C 2082.59375 1241.386719 2082.59375 1241.386719 2084.128906 1241.386719 Z M 2205.472656 1241.386719 C 2207.007812 1241.386719 2207.007812 1241.386719 2205.472656 1241.386719 C 2237.730469 1238.3125 2268.449219 1233.707031 2299.171875 1227.5625 C 2306.851562 1226.023438 2312.996094 1218.34375 2311.457031 1209.125 C 2309.921875 1201.445312 2302.242188 1195.300781 2293.027344 1196.835938 C 2263.84375 1202.980469 2233.121094 1207.589844 2203.9375 1209.125 C 2194.722656 1209.125 2188.578125 1216.808594 2190.113281 1226.023438 C 2191.648438 1235.242188 2197.792969 1241.386719 2205.472656 1241.386719 Z M 2415.90625 1195.300781 C 2417.441406 1195.300781 2418.980469 1195.300781 2420.515625 1193.761719 C 2449.699219 1183.007812 2478.882812 1170.71875 2506.53125 1156.894531 C 2514.210938 1153.820312 2517.285156 1144.601562 2514.210938 1136.921875 C 2511.140625 1129.242188 2501.921875 1126.167969 2494.242188 1129.242188 C 2466.59375 1141.53125 2438.945312 1153.820312 2411.296875 1164.574219 C 2403.617188 1167.648438 2399.011719 1176.863281 2402.082031 1184.546875 C 2403.617188 1190.691406 2409.761719 1195.300781 2415.90625 1195.300781 Z M 1875.230469 1193.761719 C 1881.375 1193.761719 1887.519531 1190.691406 1889.054688 1184.546875 C 1892.128906 1176.863281 1887.519531 1167.648438 1879.839844 1164.574219 C 1852.191406 1153.820312 1823.007812 1141.53125 1795.359375 1129.242188 C 1787.679688 1126.167969 1778.460938 1129.242188 1775.390625 1136.921875 C 1772.316406 1144.601562 1775.390625 1153.820312 1783.070312 1156.894531 C 1810.71875 1169.183594 1839.902344 1181.472656 1869.085938 1192.226562 C 1870.621094 1193.761719 1872.160156 1193.761719 1875.230469 1193.761719 Z M 1678.621094 1104.660156 C 1684.765625 1104.660156 1689.375 1101.589844 1692.445312 1096.980469 C 1697.054688 1089.296875 1693.980469 1080.082031 1686.300781 1075.472656 C 1661.726562 1061.644531 1637.148438 1047.820312 1606.429688 1030.921875 C 1598.75 1026.3125 1589.53125 1029.386719 1584.925781 1037.066406 C 1580.316406 1044.746094 1583.390625 1053.964844 1591.070312 1058.574219 C 1621.789062 1077.007812 1646.367188 1090.835938 1670.941406 1104.660156 Z M 2607.90625 1098.515625 C 2610.980469 1098.515625 2614.050781 1096.980469 2617.125 1095.445312 C 2643.238281 1078.542969 2667.8125 1058.574219 2692.390625 1040.140625 C 2698.53125 1033.992188 2700.070312 1024.777344 2693.925781 1018.632812 C 2687.78125 1012.488281 2678.566406 1010.949219 2672.421875 1017.09375 C 2649.378906 1037.066406 2624.804688 1053.964844 2600.226562 1070.863281 C 2592.546875 1075.472656 2591.011719 1084.691406 2595.621094 1092.371094 C 2597.15625 1096.980469 2601.765625 1098.515625 2607.90625 1098.515625 Z M 1494.300781 997.125 C 1498.910156 997.125 1505.050781 994.050781 1508.125 989.441406 C 1512.734375 981.761719 1509.660156 972.542969 1501.980469 967.933594 C 1471.261719 949.5 1445.148438 935.675781 1420.570312 923.382812 C 1412.890625 920.3125 1403.675781 923.382812 1400.605469 931.066406 C 1397.53125 938.746094 1400.605469 947.964844 1408.285156 951.035156 C 1432.859375 963.328125 1457.4375 977.152344 1488.15625 994.050781 C 1488.15625 995.589844 1491.226562 997.125 1494.300781 997.125 Z M 2770.726562 958.71875 C 2775.332031 958.71875 2778.40625 957.179688 2781.476562 954.109375 C 2802.980469 931.066406 2822.949219 906.484375 2841.382812 881.90625 C 2845.988281 875.761719 2844.453125 865.007812 2838.308594 860.398438 C 2832.164062 855.789062 2821.414062 857.324219 2816.804688 863.472656 C 2798.375 888.050781 2778.40625 911.09375 2758.4375 932.601562 C 2752.292969 938.746094 2753.828125 947.964844 2759.972656 954.109375 C 2763.046875 957.179688 2766.117188 958.71875 2770.726562 958.71875 Z M 1299.226562 906.484375 C 1305.371094 906.484375 1311.515625 901.875 1314.585938 895.730469 C 1317.660156 888.050781 1313.050781 878.832031 1303.835938 875.761719 C 1274.652344 866.542969 1243.929688 858.863281 1213.210938 854.253906 C 1205.53125 852.71875 1196.3125 858.863281 1194.777344 866.542969 C 1193.242188 874.226562 1199.386719 883.441406 1207.066406 884.976562 C 1237.785156 889.585938 1265.433594 897.269531 1294.621094 906.484375 Z M 781.589844 889.585938 C 812.3125 889.585938 844.566406 886.515625 875.289062 884.976562 C 884.503906 884.976562 890.648438 877.296875 889.113281 868.078125 C 889.113281 858.863281 881.433594 852.71875 872.214844 854.253906 C 841.496094 857.324219 810.777344 858.863281 781.589844 858.863281 C 772.375 858.863281 766.230469 866.542969 766.230469 874.222656 C 766.230469 881.90625 772.375 889.585938 781.589844 889.585938 Z M 658.710938 886.515625 C 666.390625 886.515625 674.070312 880.371094 674.070312 872.6875 C 674.070312 863.472656 667.925781 857.324219 660.246094 855.789062 C 629.527344 854.253906 598.804688 851.179688 569.621094 846.570312 C 560.40625 845.035156 554.261719 851.179688 552.726562 860.398438 C 551.191406 868.078125 557.335938 875.761719 566.550781 877.296875 C 595.734375 881.90625 626.453125 884.976562 658.710938 886.515625 C 657.175781 886.515625 658.710938 886.515625 658.710938 886.515625 Z M 995.097656 874.222656 C 996.632812 874.222656 996.632812 874.222656 995.097656 874.222656 C 1027.351562 872.6875 1058.074219 872.6875 1087.257812 874.222656 C 1094.9375 874.222656 1102.617188 868.078125 1102.617188 858.863281 C 1102.617188 849.644531 1096.472656 843.5 1087.257812 843.5 C 1058.074219 841.964844 1025.816406 843.5 993.5625 843.5 C 984.34375 843.5 978.199219 851.179688 978.199219 858.863281 C 981.273438 868.078125 987.417969 874.222656 995.097656 874.222656 Z M 445.203125 855.789062 C 452.886719 855.789062 459.027344 851.179688 460.566406 843.5 C 462.101562 835.816406 457.492188 826.601562 448.277344 825.066406 C 419.09375 818.917969 388.371094 809.703125 360.722656 802.019531 C 353.042969 798.949219 343.828125 803.558594 340.757812 812.773438 C 337.683594 820.457031 342.292969 829.671875 351.507812 832.746094 C 380.691406 841.964844 411.414062 849.644531 442.132812 857.324219 C 443.667969 855.789062 445.203125 855.789062 445.203125 855.789062 Z M 240.914062 789.730469 C 247.058594 789.730469 253.203125 786.660156 254.738281 780.511719 C 257.8125 772.832031 254.738281 763.613281 247.058594 760.542969 C 219.410156 748.253906 191.761719 734.425781 165.652344 720.601562 C 157.972656 715.992188 148.753906 719.0625 144.148438 726.746094 C 139.539062 734.425781 142.609375 743.644531 150.289062 748.253906 C 177.9375 763.613281 205.585938 777.441406 234.769531 789.730469 Z M 2896.679688 785.121094 C 2901.285156 785.121094 2907.429688 782.050781 2910.5 777.441406 C 2925.863281 751.324219 2939.6875 722.136719 2953.511719 694.484375 C 2956.582031 686.804688 2953.511719 677.585938 2945.832031 674.511719 C 2938.148438 671.441406 2928.933594 674.511719 2925.863281 682.195312 C 2913.574219 709.847656 2899.75 737.5 2884.390625 762.078125 C 2879.78125 769.761719 2882.855469 778.976562 2890.535156 783.585938 C 2890.535156 785.121094 2893.605469 785.121094 2896.679688 785.121094 Z M 55.058594 683.730469 C 59.667969 683.730469 64.273438 682.195312 67.347656 677.585938 C 71.953125 671.441406 70.417969 660.6875 64.273438 656.078125 C 39.699219 639.179688 16.65625 619.207031 -6.382812 599.238281 C -12.527344 593.09375 -21.742188 594.628906 -27.886719 600.773438 C -34.03125 606.917969 -32.496094 616.136719 -26.351562 622.28125 C -3.308594 642.25 21.265625 662.222656 47.378906 680.65625 C 48.914062 682.195312 51.988281 683.730469 55.058594 683.730469 Z M 2984.230469 590.019531 C 2990.375 590.019531 2996.519531 585.410156 2998.054688 579.265625 C 3007.269531 550.078125 3016.488281 520.886719 3024.167969 490.164062 C 3025.703125 482.480469 3021.09375 473.265625 3013.414062 471.730469 C 3005.734375 470.191406 2996.519531 474.800781 2994.980469 482.480469 C 2987.300781 511.671875 2979.621094 540.859375 2968.871094 570.046875 C 2965.796875 577.730469 2970.40625 586.945312 2978.085938 590.019531 Z M -104.6875 539.324219 C -101.613281 539.324219 -97.007812 537.785156 -93.933594 534.714844 C -87.792969 528.570312 -87.792969 519.351562 -92.398438 513.207031 C -112.367188 491.699219 -130.800781 467.121094 -149.230469 442.539062 C -153.839844 436.394531 -164.589844 434.859375 -170.734375 439.46875 C -176.878906 444.078125 -178.414062 454.828125 -173.808594 460.976562 C -155.375 485.554688 -135.40625 510.132812 -115.4375 533.179688 C -112.367188 537.785156 -107.757812 539.324219 -104.6875 539.324219 Z M 3034.917969 381.089844 C 3042.597656 381.089844 3048.742188 374.945312 3050.277344 368.800781 C 3054.886719 338.074219 3059.496094 307.351562 3062.566406 276.625 C 3064.101562 268.945312 3056.421875 261.261719 3048.742188 259.726562 C 3039.527344 258.191406 3033.382812 265.871094 3031.847656 273.554688 C 3028.773438 304.277344 3025.703125 335.003906 3021.09375 364.191406 C 3019.558594 371.871094 3025.703125 381.089844 3033.382812 381.089844 Z M -230.640625 365.726562 C -227.566406 365.726562 -226.03125 365.726562 -222.960938 364.191406 C -215.28125 359.582031 -213.742188 350.367188 -216.816406 342.683594 C -232.175781 316.566406 -246 290.453125 -259.824219 262.800781 C -262.894531 255.117188 -272.113281 252.046875 -279.792969 255.117188 C -287.472656 258.191406 -290.542969 267.410156 -287.472656 275.089844 C -273.648438 302.742188 -258.289062 330.394531 -242.929688 356.511719 C -239.855469 362.65625 -235.25 365.726562 -230.640625 365.726562 Z M -322.800781 172.160156 C -321.265625 172.160156 -319.730469 172.160156 -316.65625 170.625 C -308.976562 167.550781 -304.367188 158.335938 -307.441406 150.652344 C -318.191406 123 -327.410156 93.8125 -336.625 64.625 C -339.695312 56.941406 -347.375 52.332031 -356.59375 53.871094 C -364.273438 56.941406 -368.882812 64.625 -367.34375 73.839844 C -358.128906 104.566406 -347.375 133.753906 -336.625 161.40625 C -333.554688 169.089844 -328.945312 172.160156 -322.800781 172.160156 Z M 3053.351562 167.550781 C 3061.03125 167.550781 3068.710938 161.40625 3068.710938 152.191406 C 3070.246094 126.074219 3070.246094 98.421875 3070.246094 70.769531 L 3070.246094 60.015625 C 3070.246094 50.796875 3064.101562 44.652344 3054.886719 44.652344 C 3045.671875 44.652344 3039.527344 52.332031 3039.527344 60.015625 L 3039.527344 70.769531 C 3039.527344 96.886719 3039.527344 124.539062 3037.992188 150.652344 C 3036.453125 159.871094 3044.132812 167.550781 3053.351562 167.550781 C 3051.816406 167.550781 3051.816406 167.550781 3053.351562 167.550781 Z M -384.242188 -33.695312 L -381.167969 -33.695312 C -373.488281 -35.230469 -367.34375 -44.449219 -370.417969 -52.128906 C -376.5625 -81.320312 -382.707031 -110.507812 -388.847656 -141.234375 C -390.386719 -148.914062 -398.066406 -155.058594 -407.28125 -153.523438 C -414.960938 -151.988281 -421.105469 -144.304688 -419.570312 -135.085938 C -413.425781 -104.363281 -407.28125 -73.636719 -401.136719 -44.449219 C -396.527344 -38.304688 -390.386719 -33.695312 -384.242188 -33.695312 Z M 3050.277344 -47.523438 C 3050.277344 -47.523438 3051.816406 -47.523438 3050.277344 -47.523438 C 3059.496094 -47.523438 3065.640625 -55.203125 3065.640625 -62.882812 C 3064.101562 -93.609375 3062.566406 -124.335938 3059.496094 -155.058594 C 3059.496094 -162.738281 3051.816406 -170.421875 3042.597656 -168.886719 C 3033.382812 -168.886719 3027.238281 -161.203125 3028.773438 -151.988281 C 3031.847656 -121.261719 3033.382812 -90.535156 3034.917969 -59.8125 C 3036.453125 -53.667969 3042.597656 -47.523438 3050.277344 -47.523438 Z M -421.105469 -245.699219 L -419.570312 -245.699219 C -411.890625 -247.234375 -405.746094 -254.914062 -405.746094 -262.597656 C -408.816406 -291.785156 -411.890625 -322.507812 -414.960938 -353.234375 C -414.960938 -360.914062 -422.640625 -368.597656 -431.859375 -367.058594 C -441.074219 -367.058594 -447.21875 -359.378906 -445.679688 -350.160156 L -436.464844 -257.988281 C -434.929688 -250.304688 -428.785156 -245.699219 -421.105469 -245.699219 Z M 3031.847656 -262.597656 L 3033.382812 -262.597656 C 3041.0625 -264.132812 3047.207031 -271.8125 3047.207031 -279.496094 C 3044.132812 -310.21875 3039.527344 -340.945312 3034.917969 -371.667969 C 3033.382812 -379.351562 3025.703125 -385.496094 3018.023438 -383.960938 C 3010.34375 -382.421875 3004.199219 -374.742188 3005.734375 -367.058594 C 3010.34375 -336.335938 3014.949219 -307.148438 3018.023438 -276.421875 C 3018.023438 -267.203125 3024.167969 -262.597656 3031.847656 -262.597656 Z M -436.464844 -459.234375 C -427.25 -459.234375 -421.105469 -466.917969 -421.105469 -474.597656 L -421.105469 -565.234375 C -421.105469 -574.453125 -427.25 -580.597656 -436.464844 -580.597656 C -444.144531 -580.597656 -451.824219 -574.453125 -451.824219 -565.234375 L -451.824219 -471.523438 C -451.824219 -465.378906 -444.144531 -459.234375 -436.464844 -459.234375 Z M 2998.054688 -474.597656 L 3001.125 -474.597656 C 3008.804688 -476.132812 3014.949219 -483.816406 3013.414062 -493.03125 C 3007.269531 -523.757812 3001.125 -552.945312 2993.445312 -583.671875 C 2991.910156 -591.351562 2982.695312 -597.496094 2975.015625 -594.425781 C 2967.335938 -592.886719 2961.191406 -583.671875 2964.261719 -575.988281 C 2971.941406 -546.800781 2978.085938 -516.074219 2984.230469 -486.886719 C 2984.230469 -479.207031 2990.375 -474.597656 2998.054688 -474.597656 Z M -428.785156 -674.308594 C -421.105469 -674.308594 -414.960938 -680.453125 -413.425781 -688.136719 C -410.351562 -718.859375 -407.28125 -749.585938 -402.671875 -778.773438 C -401.136719 -786.453125 -407.28125 -795.671875 -414.960938 -795.671875 C -422.640625 -797.207031 -431.859375 -791.0625 -431.859375 -783.382812 C -436.464844 -754.195312 -441.074219 -721.933594 -442.609375 -691.207031 C -445.679688 -681.992188 -439.539062 -674.308594 -428.785156 -674.308594 C -430.320312 -674.308594 -430.320312 -674.308594 -428.785156 -674.308594 Z M 2947.367188 -683.527344 L 2951.972656 -683.527344 C 2959.652344 -686.597656 2964.261719 -694.28125 2962.726562 -701.960938 C 2955.046875 -731.148438 2945.828125 -761.875 2935.078125 -791.0625 C 2932.003906 -798.746094 2924.324219 -803.355469 2915.109375 -800.28125 C 2907.429688 -797.207031 2902.820312 -789.527344 2905.894531 -780.308594 C 2915.109375 -751.121094 2924.324219 -721.933594 2932.007812 -692.742188 C 2935.078125 -688.136719 2941.222656 -683.527344 2947.367188 -683.527344 Z M -393.457031 -884.773438 C -387.3125 -884.773438 -379.632812 -889.382812 -378.097656 -897.0625 C -370.417969 -926.253906 -361.199219 -955.441406 -351.984375 -984.628906 C -348.914062 -992.3125 -353.519531 -1001.527344 -361.199219 -1004.601562 C -368.882812 -1007.675781 -378.097656 -1003.066406 -381.167969 -995.382812 C -390.386719 -966.195312 -399.601562 -937.007812 -407.28125 -906.28125 C -408.816406 -898.601562 -404.210938 -889.382812 -396.527344 -887.847656 C -396.527344 -886.3125 -394.992188 -884.773438 -393.457031 -884.773438 Z M 2879.78125 -887.847656 C 2881.316406 -887.847656 2882.855469 -887.847656 2885.925781 -889.382812 C 2893.605469 -892.457031 2898.214844 -901.671875 2895.140625 -909.355469 C 2884.390625 -938.542969 2872.101562 -967.730469 2861.347656 -995.382812 C 2858.277344 -1003.066406 2849.0625 -1006.136719 2841.382812 -1003.066406 C 2833.703125 -999.992188 2830.628906 -990.773438 2833.703125 -983.09375 C 2845.988281 -955.441406 2856.742188 -926.253906 2867.492188 -898.601562 C 2867.492188 -890.917969 2873.636719 -887.847656 2879.78125 -887.847656 Z M 2795.300781 -1084.484375 C 2796.835938 -1084.484375 2799.910156 -1084.484375 2801.445312 -1086.023438 C 2809.125 -1089.09375 2812.195312 -1098.3125 2809.125 -1105.992188 C 2795.300781 -1133.644531 2781.476562 -1161.296875 2766.117188 -1188.949219 C 2761.507812 -1196.632812 2752.292969 -1199.703125 2744.613281 -1195.09375 C 2736.933594 -1190.488281 2733.859375 -1181.269531 2738.46875 -1173.589844 C 2752.292969 -1147.472656 2767.652344 -1119.820312 2781.476562 -1092.167969 C 2783.011719 -1087.558594 2789.15625 -1084.484375 2795.300781 -1084.484375 Z M -321.265625 -1087.558594 C -315.121094 -1087.558594 -310.511719 -1090.632812 -307.441406 -1096.777344 C -293.617188 -1124.429688 -279.792969 -1150.542969 -264.433594 -1176.660156 C -259.824219 -1184.339844 -262.894531 -1193.558594 -269.039062 -1198.167969 C -276.71875 -1202.777344 -285.9375 -1199.703125 -290.542969 -1193.558594 C -305.90625 -1167.441406 -321.265625 -1139.789062 -335.089844 -1112.136719 C -338.160156 -1104.457031 -335.089844 -1095.238281 -327.410156 -1092.167969 C -325.871094 -1087.558594 -322.800781 -1087.558594 -321.265625 -1087.558594 Z M -206.0625 -1268.835938 C -201.457031 -1268.835938 -196.847656 -1270.371094 -193.777344 -1274.980469 C -175.34375 -1298.023438 -153.839844 -1321.066406 -132.335938 -1341.039062 C -126.191406 -1347.183594 -126.191406 -1356.402344 -132.335938 -1362.546875 C -138.480469 -1368.691406 -147.695312 -1368.691406 -153.839844 -1362.546875 C -175.34375 -1341.039062 -196.847656 -1317.996094 -216.816406 -1293.414062 C -221.421875 -1287.269531 -221.421875 -1276.515625 -215.28125 -1271.90625 C -213.742188 -1268.835938 -210.671875 -1268.835938 -206.0625 -1268.835938 Z M 2689.316406 -1271.90625 C 2692.386719 -1271.90625 2695.460938 -1273.445312 2696.996094 -1274.980469 C 2704.675781 -1279.589844 2706.210938 -1288.804688 2701.605469 -1296.488281 C 2684.707031 -1322.605469 2666.277344 -1348.71875 2647.84375 -1373.300781 C 2643.234375 -1379.445312 2632.484375 -1380.980469 2626.339844 -1376.371094 C 2620.195312 -1371.761719 2618.660156 -1361.007812 2623.269531 -1354.863281 C 2640.164062 -1331.820312 2658.597656 -1305.703125 2675.492188 -1279.589844 C 2678.5625 -1274.980469 2683.171875 -1271.90625 2689.316406 -1271.90625 Z M -50.925781 -1416.3125 C -47.855469 -1416.3125 -44.78125 -1417.851562 -41.710938 -1419.386719 C -17.132812 -1437.820312 7.441406 -1454.71875 33.554688 -1470.082031 C 41.234375 -1474.691406 42.769531 -1483.910156 38.164062 -1491.589844 C 33.554688 -1499.273438 24.339844 -1500.808594 16.660156 -1496.199219 C -10.988281 -1480.835938 -37.101562 -1462.402344 -61.679688 -1443.964844 C -67.824219 -1439.359375 -69.359375 -1428.605469 -64.75 -1422.460938 C -60.140625 -1417.851562 -55.535156 -1416.3125 -50.925781 -1416.3125 Z M 2558.753906 -1442.429688 C 2561.828125 -1442.429688 2566.433594 -1443.964844 2569.507812 -1447.039062 C 2575.652344 -1453.183594 2575.652344 -1462.402344 2571.042969 -1468.546875 C 2549.539062 -1491.589844 2526.5 -1514.632812 2504.996094 -1534.605469 C 2498.851562 -1540.75 2489.636719 -1539.214844 2483.492188 -1533.070312 C 2477.347656 -1526.925781 2478.882812 -1517.707031 2485.027344 -1511.5625 C 2506.53125 -1491.589844 2528.035156 -1470.082031 2549.539062 -1447.039062 C 2549.539062 -1443.964844 2554.148438 -1442.429688 2558.753906 -1442.429688 Z M 134.929688 -1523.851562 C 136.464844 -1523.851562 139.539062 -1523.851562 141.074219 -1525.386719 C 168.722656 -1537.675781 196.371094 -1548.429688 225.554688 -1559.183594 C 233.234375 -1562.257812 237.84375 -1569.9375 234.769531 -1579.15625 C 231.699219 -1586.835938 224.019531 -1591.445312 214.804688 -1588.375 C 185.617188 -1577.621094 156.433594 -1566.867188 127.25 -1554.578125 C 119.570312 -1551.503906 116.5 -1542.285156 119.570312 -1534.605469 C 122.644531 -1526.925781 128.785156 -1523.851562 134.929688 -1523.851562 Z M 2395.9375 -1583.765625 C 2400.546875 -1583.765625 2405.15625 -1586.835938 2408.226562 -1591.445312 C 2412.835938 -1599.128906 2411.296875 -1608.34375 2403.617188 -1612.953125 C 2375.96875 -1631.386719 2348.320312 -1645.214844 2320.671875 -1657.503906 C 2302.242188 -1665.1875 2282.273438 -1672.867188 2262.304688 -1680.546875 C 2254.625 -1683.621094 2245.410156 -1679.011719 2242.335938 -1671.332031 C 2239.265625 -1663.648438 2243.875 -1654.433594 2251.554688 -1651.359375 C 2273.058594 -1643.679688 2291.488281 -1635.996094 2309.921875 -1628.316406 C 2336.035156 -1617.5625 2362.144531 -1602.199219 2388.257812 -1585.300781 C 2389.792969 -1583.765625 2392.867188 -1583.765625 2395.9375 -1583.765625 Z M 339.21875 -1591.445312 L 342.292969 -1591.445312 C 371.476562 -1597.589844 402.195312 -1603.734375 431.378906 -1609.882812 C 439.0625 -1611.417969 445.203125 -1619.097656 443.667969 -1626.78125 C 442.132812 -1634.460938 434.453125 -1640.605469 426.773438 -1639.070312 C 396.050781 -1634.460938 365.332031 -1628.316406 334.613281 -1620.632812 C 326.933594 -1619.097656 320.789062 -1609.882812 323.859375 -1602.199219 C 325.394531 -1596.054688 331.539062 -1591.445312 339.21875 -1591.445312 Z M 551.191406 -1623.707031 C 551.191406 -1623.707031 552.726562 -1623.707031 551.191406 -1623.707031 C 560.40625 -1623.707031 569.621094 -1625.242188 577.300781 -1625.242188 C 597.269531 -1626.78125 620.308594 -1628.316406 644.886719 -1629.851562 C 652.566406 -1631.386719 660.246094 -1637.535156 658.710938 -1646.75 C 657.175781 -1654.433594 651.03125 -1662.113281 641.8125 -1660.578125 C 617.238281 -1657.503906 595.734375 -1655.96875 575.765625 -1655.96875 C 568.085938 -1655.96875 558.871094 -1654.433594 551.1875 -1654.433594 C 541.972656 -1654.433594 535.828125 -1646.75 537.363281 -1637.535156 C 535.828125 -1629.851562 543.507812 -1623.707031 551.1875 -1623.707031 Z M 764.695312 -1643.679688 L 766.230469 -1643.679688 C 795.414062 -1646.75 826.136719 -1651.359375 858.390625 -1654.433594 C 866.070312 -1655.96875 872.214844 -1663.648438 872.214844 -1671.332031 C 870.679688 -1679.011719 863 -1685.15625 855.320312 -1685.15625 C 823.0625 -1680.546875 793.878906 -1677.476562 763.160156 -1674.402344 C 755.480469 -1672.867188 749.335938 -1665.1875 749.335938 -1657.503906 C 750.871094 -1649.824219 757.015625 -1643.679688 764.695312 -1643.679688 Z M 978.199219 -1671.332031 L 979.738281 -1671.332031 C 1008.921875 -1674.402344 1039.640625 -1679.011719 1071.898438 -1682.085938 C 1079.578125 -1683.621094 1085.722656 -1691.300781 1085.722656 -1698.984375 C 1084.183594 -1706.664062 1076.503906 -1712.808594 1068.824219 -1712.808594 C 1038.105469 -1709.738281 1007.382812 -1705.128906 976.664062 -1702.054688 C 968.984375 -1700.519531 962.839844 -1692.839844 962.839844 -1685.15625 C 964.375 -1675.9375 970.519531 -1671.332031 978.199219 -1671.332031 Z M 2140.960938 -1685.15625 C 2148.640625 -1685.15625 2154.785156 -1689.765625 2156.320312 -1697.445312 C 2157.855469 -1705.128906 2153.25 -1714.34375 2145.570312 -1715.882812 C 2116.382812 -1722.027344 2085.664062 -1728.171875 2054.945312 -1734.316406 C 2047.265625 -1735.851562 2038.046875 -1729.707031 2038.046875 -1722.027344 C 2036.511719 -1714.34375 2042.65625 -1705.128906 2050.335938 -1705.128906 C 2081.054688 -1700.519531 2111.777344 -1694.375 2139.425781 -1686.691406 C 2137.886719 -1685.15625 2139.425781 -1685.15625 2140.960938 -1685.15625 Z M 1191.707031 -1695.910156 L 1193.242188 -1695.910156 L 1285.402344 -1705.128906 C 1293.082031 -1706.664062 1300.761719 -1712.808594 1299.226562 -1722.027344 C 1297.691406 -1731.246094 1291.546875 -1735.851562 1282.332031 -1735.851562 L 1190.167969 -1726.636719 C 1182.488281 -1725.097656 1176.347656 -1717.417969 1176.347656 -1709.738281 C 1177.882812 -1702.054688 1184.027344 -1695.910156 1191.707031 -1695.910156 Z M 1406.746094 -1715.882812 C 1439.003906 -1718.953125 1469.722656 -1720.492188 1498.90625 -1722.027344 C 1508.125 -1722.027344 1514.269531 -1729.707031 1512.730469 -1738.925781 C 1512.730469 -1748.144531 1505.050781 -1754.289062 1495.835938 -1752.75 C 1465.117188 -1751.214844 1434.394531 -1749.679688 1403.675781 -1746.605469 C 1394.460938 -1746.605469 1388.316406 -1738.925781 1389.851562 -1729.707031 C 1391.386719 -1722.027344 1399.066406 -1715.882812 1406.746094 -1715.882812 Z M 1928.992188 -1717.417969 C 1936.671875 -1717.417969 1942.816406 -1723.5625 1944.351562 -1731.246094 C 1945.886719 -1738.925781 1938.207031 -1746.605469 1930.527344 -1748.144531 C 1901.34375 -1751.214844 1869.085938 -1752.75 1838.367188 -1754.289062 C 1829.148438 -1754.289062 1823.007812 -1748.144531 1823.007812 -1740.460938 C 1823.007812 -1731.246094 1829.148438 -1725.097656 1836.832031 -1725.097656 C 1867.550781 -1723.5625 1898.269531 -1720.492188 1928.992188 -1717.417969 C 1927.453125 -1717.417969 1927.453125 -1717.417969 1928.992188 -1717.417969 Z M 1621.789062 -1726.636719 C 1647.902344 -1726.636719 1674.011719 -1728.171875 1700.125 -1728.171875 L 1713.949219 -1728.171875 C 1721.628906 -1728.171875 1729.308594 -1734.316406 1729.308594 -1743.535156 C 1729.308594 -1752.75 1723.164062 -1758.898438 1713.949219 -1758.898438 L 1700.125 -1758.898438 C 1674.011719 -1758.898438 1647.902344 -1758.898438 1621.789062 -1757.359375 C 1612.574219 -1757.359375 1606.429688 -1749.679688 1606.429688 -1741.996094 C 1606.429688 -1734.316406 1612.574219 -1726.636719 1621.789062 -1726.636719 Z M 1621.789062 -1726.636719 "/>
</g>
<g clip-path="url(#clip4)" clip-rule="nonzero">
<path style=" stroke:none;fill-rule:nonzero;fill:rgb(97.648621%,67.83905%,29.798889%);fill-opacity:1;" d="M 947.996094 490.929688 C 843.066406 490.929688 758 480.179688 758 466.917969 C 758 453.65625 843.066406 442.902344 947.996094 442.902344 C 1052.933594 442.902344 1138 453.65625 1138 466.917969 C 1138 480.179688 1052.933594 490.929688 947.996094 490.929688 "/>
</g>
<path style=" stroke:none;fill-rule:nonzero;fill:rgb(45.098877%,81.568909%,79.60968%);fill-opacity:1;" d="M 882.066406 306.199219 L 811.886719 306.199219 L 811.886719 253.640625 L 882.066406 253.640625 L 882.066406 306.199219 "/>
<path style=" stroke:none;fill-rule:nonzero;fill:rgb(23.919678%,18.429565%,46.269226%);fill-opacity:1;" d="M 882.066406 265.847656 L 882.066406 253.640625 L 811.886719 253.640625 L 811.886719 265.847656 L 882.066406 265.847656 "/>
<path style=" stroke:none;fill-rule:nonzero;fill:rgb(23.919678%,18.429565%,46.269226%);fill-opacity:1;" d="M 826.140625 278.789062 L 817.710938 278.789062 L 817.710938 270.15625 L 826.140625 270.15625 L 826.140625 278.789062 "/>
<path style=" stroke:none;fill-rule:nonzero;fill:rgb(23.919678%,18.429565%,46.269226%);fill-opacity:1;" d="M 838.5 278.789062 L 830.074219 278.789062 L 830.074219 270.15625 L 838.5 270.15625 L 838.5 278.789062 "/>
<path style=" stroke:none;fill-rule:nonzero;fill:rgb(23.919678%,18.429565%,46.269226%);fill-opacity:1;" d="M 850.859375 278.789062 L 842.429688 278.789062 L 842.429688 270.15625 L 850.859375 270.15625 L 850.859375 278.789062 "/>
<path style=" stroke:none;fill-rule:nonzero;fill:rgb(98.81897%,81.17981%,52.549744%);fill-opacity:1;" d="M 863.214844 278.789062 L 854.789062 278.789062 L 854.789062 270.15625 L 863.214844 270.15625 L 863.214844 278.789062 "/>
<path style=" stroke:none;fill-rule:nonzero;fill:rgb(23.919678%,18.429565%,46.269226%);fill-opacity:1;" d="M 875.574219 278.789062 L 867.148438 278.789062 L 867.148438 270.15625 L 875.574219 270.15625 L 875.574219 278.789062 "/>
<path style=" stroke:none;fill-rule:nonzero;fill:rgb(23.919678%,18.429565%,46.269226%);fill-opacity:1;" d="M 826.140625 290.058594 L 817.710938 290.058594 L 817.710938 281.425781 L 826.140625 281.425781 L 826.140625 290.058594 "/>
<path style=" stroke:none;fill-rule:nonzero;fill:rgb(98.81897%,81.17981%,52.549744%);fill-opacity:1;" d="M 838.5 290.058594 L 830.074219 290.058594 L 830.074219 281.425781 L 838.5 281.425781 L 838.5 290.058594 "/>
<path style=" stroke:none;fill-rule:nonzero;fill:rgb(23.919678%,18.429565%,46.269226%);fill-opacity:1;" d="M 850.859375 290.058594 L 842.429688 290.058594 L 842.429688 281.425781 L 850.859375 281.425781 L 850.859375 290.058594 "/>
<path style=" stroke:none;fill-rule:nonzero;fill:rgb(23.919678%,18.429565%,46.269226%);fill-opacity:1;" d="M 863.214844 290.058594 L 854.789062 290.058594 L 854.789062 281.425781 L 863.214844 281.425781 L 863.214844 290.058594 "/>
<path style=" stroke:none;fill-rule:nonzero;fill:rgb(23.919678%,18.429565%,46.269226%);fill-opacity:1;" d="M 875.574219 290.058594 L 867.148438 290.058594 L 867.148438 281.425781 L 875.574219 281.425781 L 875.574219 290.058594 "/>
<path style=" stroke:none;fill-rule:nonzero;fill:rgb(23.919678%,18.429565%,46.269226%);fill-opacity:1;" d="M 826.140625 301.324219 L 817.710938 301.324219 L 817.710938 292.691406 L 826.140625 292.691406 L 826.140625 301.324219 "/>
<path style=" stroke:none;fill-rule:nonzero;fill:rgb(23.919678%,18.429565%,46.269226%);fill-opacity:1;" d="M 838.5 301.324219 L 830.074219 301.324219 L 830.074219 292.691406 L 838.5 292.691406 L 838.5 301.324219 "/>
<path style=" stroke:none;fill-rule:nonzero;fill:rgb(23.919678%,18.429565%,46.269226%);fill-opacity:1;" d="M 850.859375 301.324219 L 842.429688 301.324219 L 842.429688 292.691406 L 850.859375 292.691406 L 850.859375 301.324219 "/>
<path style=" stroke:none;fill-rule:nonzero;fill:rgb(98.81897%,81.17981%,52.549744%);fill-opacity:1;" d="M 863.214844 301.324219 L 854.789062 301.324219 L 854.789062 292.691406 L 863.214844 292.691406 L 863.214844 301.324219 "/>
<path style=" stroke:none;fill-rule:nonzero;fill:rgb(23.919678%,18.429565%,46.269226%);fill-opacity:1;" d="M 875.574219 301.324219 L 867.148438 301.324219 L 867.148438 292.691406 L 875.574219 292.691406 L 875.574219 301.324219 "/>
<path style=" stroke:none;fill-rule:nonzero;fill:rgb(45.098877%,81.568909%,79.60968%);fill-opacity:1;" d="M 823.390625 259.742188 L 818.65625 259.742188 L 818.65625 248.878906 L 823.390625 248.878906 L 823.390625 259.742188 "/>
<path style=" stroke:none;fill-rule:nonzero;fill:rgb(45.098877%,81.568909%,79.60968%);fill-opacity:1;" d="M 836.484375 259.742188 L 831.75 259.742188 L 831.75 248.878906 L 836.484375 248.878906 L 836.484375 259.742188 "/>
<path style=" stroke:none;fill-rule:nonzero;fill:rgb(45.098877%,81.568909%,79.60968%);fill-opacity:1;" d="M 849.574219 259.742188 L 844.84375 259.742188 L 844.84375 248.878906 L 849.574219 248.878906 L 849.574219 259.742188 "/>
<path style=" stroke:none;fill-rule:nonzero;fill:rgb(45.098877%,81.568909%,79.60968%);fill-opacity:1;" d="M 862.667969 259.742188 L 857.9375 259.742188 L 857.9375 248.878906 L 862.667969 248.878906 L 862.667969 259.742188 "/>
<path style=" stroke:none;fill-rule:nonzero;fill:rgb(45.098877%,81.568909%,79.60968%);fill-opacity:1;" d="M 875.761719 259.742188 L 871.03125 259.742188 L 871.03125 248.878906 L 875.761719 248.878906 L 875.761719 259.742188 "/>
<path style=" stroke:none;fill-rule:nonzero;fill:rgb(38.42926%,16.468811%,58.428955%);fill-opacity:1;" d="M 926.617188 228.644531 L 874.453125 228.644531 L 874.453125 221.46875 L 926.617188 221.46875 L 926.617188 228.644531 "/>
<path style=" stroke:none;fill-rule:nonzero;fill:rgb(38.42926%,16.468811%,58.428955%);fill-opacity:1;" d="M 926.617188 259.328125 L 874.453125 259.328125 L 874.453125 252.152344 L 926.617188 252.152344 L 926.617188 259.328125 "/>
<path style=" stroke:none;fill-rule:nonzero;fill:rgb(38.42926%,16.468811%,58.428955%);fill-opacity:1;" d="M 926.617188 290.007812 L 874.453125 290.007812 L 874.453125 282.832031 L 926.617188 282.832031 L 926.617188 290.007812 "/>
<path style=" stroke:none;fill-rule:nonzero;fill:rgb(38.42926%,16.468811%,58.428955%);fill-opacity:1;" d="M 926.617188 320.691406 L 874.453125 320.691406 L 874.453125 313.507812 L 926.617188 313.507812 L 926.617188 320.691406 "/>
<path style=" stroke:none;fill-rule:nonzero;fill:rgb(38.42926%,16.468811%,58.428955%);fill-opacity:1;" d="M 926.617188 351.375 L 874.453125 351.375 L 874.453125 344.191406 L 926.617188 344.191406 L 926.617188 351.375 "/>
<path style=" stroke:none;fill-rule:nonzero;fill:rgb(38.42926%,16.468811%,58.428955%);fill-opacity:1;" d="M 926.617188 382.054688 L 874.453125 382.054688 L 874.453125 374.875 L 926.617188 374.875 L 926.617188 382.054688 "/>
<path style=" stroke:none;fill-rule:nonzero;fill:rgb(38.42926%,16.468811%,58.428955%);fill-opacity:1;" d="M 926.617188 412.738281 L 874.453125 412.738281 L 874.453125 405.558594 L 926.617188 405.558594 L 926.617188 412.738281 "/>
<path style=" stroke:none;fill-rule:nonzero;fill:rgb(38.42926%,16.468811%,58.428955%);fill-opacity:1;" d="M 926.617188 443.417969 L 874.453125 443.417969 L 874.453125 436.242188 L 926.617188 436.242188 L 926.617188 443.417969 "/>
<path style=" stroke:none;fill-rule:nonzero;fill:rgb(38.42926%,16.468811%,58.428955%);fill-opacity:1;" d="M 931.730469 463.539062 L 923.4375 463.539062 L 923.4375 206.890625 L 931.730469 206.890625 L 931.730469 463.539062 "/>
<path style=" stroke:none;fill-rule:nonzero;fill:rgb(38.42926%,16.468811%,58.428955%);fill-opacity:1;" d="M 877.40625 463.539062 L 869.109375 463.539062 L 869.109375 206.890625 L 877.40625 206.890625 L 877.40625 463.539062 "/>
<path style=" stroke:none;fill-rule:nonzero;fill:rgb(61.959839%,49.409485%,77.648926%);fill-opacity:1;" d="M 997.574219 202.820312 C 997.480469 202.820312 997.382812 202.820312 997.285156 202.820312 L 997.285156 253.417969 L 1047.136719 253.417969 C 1047.144531 253.066406 1047.15625 252.714844 1047.15625 252.359375 C 1047.15625 225 1024.957031 202.820312 997.574219 202.820312 "/>
<path style=" stroke:none;fill-rule:nonzero;fill:rgb(93.728638%,17.248535%,51.759338%);fill-opacity:1;" d="M 997.640625 253.179688 L 997.640625 202.820312 L 997.574219 202.820312 C 970.1875 202.820312 947.988281 225.078125 947.988281 252.535156 C 947.988281 252.753906 947.996094 252.964844 947.996094 253.179688 L 997.640625 253.179688 "/>
<path style=" stroke:none;fill-rule:nonzero;fill:rgb(61.959839%,49.409485%,77.648926%);fill-opacity:1;" d="M 997.640625 253.179688 L 948 253.179688 C 948.335938 274.109375 961.667969 291.878906 980.273438 298.800781 L 997.640625 253.179688 "/>
<path style=" stroke:none;fill-rule:nonzero;fill:rgb(38.42926%,16.468811%,58.428955%);fill-opacity:1;" d="M 997.769531 253.179688 L 980.382812 298.839844 C 985.746094 300.816406 991.535156 301.902344 997.582031 301.902344 C 1024.691406 301.902344 1046.714844 280.164062 1047.15625 253.179688 L 997.769531 253.179688 "/>
<path style=" stroke:none;fill-rule:nonzero;fill:rgb(100%,100%,100%);fill-opacity:1;" d="M 1097.246094 260.441406 C 1087.453125 260.441406 1079.503906 252.507812 1079.503906 242.714844 C 1079.503906 232.925781 1087.453125 224.988281 1097.246094 224.988281 C 1107.046875 224.988281 1114.992188 232.925781 1114.992188 242.714844 C 1114.992188 252.507812 1107.046875 260.441406 1097.246094 260.441406 Z M 1143.023438 251.03125 L 1143.023438 234.402344 L 1135.308594 234.402344 C 1134.171875 228.882812 1131.859375 223.800781 1128.648438 219.410156 L 1133.617188 213.722656 L 1121.078125 202.789062 L 1116.191406 208.382812 C 1112.917969 206.546875 1109.347656 205.179688 1105.566406 204.355469 L 1105.566406 196.976562 L 1088.925781 196.976562 L 1088.925781 204.355469 C 1084.199219 205.386719 1079.789062 207.273438 1075.871094 209.855469 L 1070.582031 204.621094 L 1058.867188 216.433594 L 1064.253906 221.765625 C 1061.867188 225.585938 1060.125 229.84375 1059.1875 234.402344 L 1051.46875 234.402344 L 1051.46875 251.03125 L 1059.382812 251.03125 C 1060.625 256.410156 1062.972656 261.355469 1066.191406 265.621094 L 1060.875 271.707031 L 1073.417969 282.644531 L 1078.804688 276.46875 C 1081.945312 278.164062 1085.34375 279.433594 1088.925781 280.210938 L 1088.925781 288.453125 L 1105.566406 288.453125 L 1105.566406 280.210938 C 1110.085938 279.226562 1114.304688 277.457031 1118.089844 275.046875 L 1123.910156 280.816406 L 1135.628906 269 L 1129.898438 263.332031 C 1132.304688 259.621094 1134.085938 255.46875 1135.109375 251.03125 L 1143.023438 251.03125 "/>
<g clip-path="url(#clip5)" clip-rule="nonzero">
<path style=" stroke:none;fill-rule:nonzero;fill:rgb(100%,100%,100%);fill-opacity:1;" d="M 1079.34375 183.519531 C 1079.328125 175.910156 1074.171875 169.511719 1067.160156 167.589844 C 1067.171875 167.390625 1067.179688 167.195312 1067.179688 166.992188 C 1067.179688 157.847656 1059.753906 150.425781 1050.597656 150.425781 C 1044.960938 150.425781 1039.988281 153.238281 1036.996094 157.527344 C 1034.109375 154.6875 1030.152344 152.933594 1025.777344 152.933594 C 1017.367188 152.933594 1010.480469 159.429688 1009.855469 167.671875 C 1009.640625 167.664062 1009.421875 167.65625 1009.195312 167.65625 C 1000.28125 167.65625 993.027344 174.699219 992.65625 183.519531 L 1079.34375 183.519531 "/>
</g>
<path style=" stroke:none;fill-rule:nonzero;fill:rgb(100%,100%,100%);fill-opacity:1;" d="M 875.390625 194.585938 C 875.371094 185.789062 869.421875 178.398438 861.320312 176.179688 C 861.328125 175.953125 861.339844 175.722656 861.339844 175.492188 C 861.339844 164.921875 852.761719 156.355469 842.183594 156.355469 C 835.671875 156.355469 829.929688 159.601562 826.464844 164.558594 C 823.136719 161.273438 818.566406 159.246094 813.507812 159.246094 C 803.792969 159.246094 795.835938 166.753906 795.117188 176.277344 C 794.871094 176.269531 794.613281 176.257812 794.355469 176.257812 C 784.050781 176.257812 775.675781 184.394531 775.242188 194.585938 L 875.390625 194.585938 "/>
<path style=" stroke:none;fill-rule:nonzero;fill:rgb(17.248535%,12.939453%,32.939148%);fill-opacity:1;" d="M 888.855469 263.574219 L 889.128906 280.5 C 889.128906 283.136719 891.144531 283.34375 894.136719 283.34375 L 912.699219 283.34375 C 915.691406 283.34375 917.820312 281.65625 917.820312 279.027344 L 918.242188 263.574219 L 888.855469 263.574219 "/>
<path style=" stroke:none;fill-rule:nonzero;fill:rgb(34.509277%,47.059631%,76.858521%);fill-opacity:1;" d="M 909.925781 330.769531 L 909.699219 341.789062 C 909.660156 343.675781 911.160156 345.242188 913.050781 345.28125 C 914.941406 345.316406 916.507812 343.820312 916.550781 341.933594 L 916.78125 330.910156 L 909.925781 330.769531 "/>
<path style=" stroke:none;fill-rule:nonzero;fill:rgb(23.919678%,18.429565%,46.269226%);fill-opacity:1;" d="M 904.761719 277.015625 L 909.171875 332.183594 L 917.53125 332.355469 C 917.53125 332.355469 918.535156 285.1875 917.84375 274.367188 C 917.570312 270.082031 916.890625 270.265625 911.101562 271.046875 C 905.042969 271.875 904.359375 272.664062 904.761719 277.015625 "/>
<path style=" stroke:none;fill-rule:nonzero;fill:rgb(34.509277%,47.059631%,76.858521%);fill-opacity:1;" d="M 897.359375 330.769531 L 897.585938 341.703125 C 897.625 343.578125 896.140625 345.132812 894.257812 345.171875 C 892.382812 345.207031 890.828125 343.722656 890.789062 341.847656 L 890.5625 330.910156 L 897.359375 330.769531 "/>
<path style=" stroke:none;fill-rule:nonzero;fill:rgb(23.919678%,18.429565%,46.269226%);fill-opacity:1;" d="M 902.753906 277.585938 L 898.152344 332.183594 L 889.792969 332.355469 C 889.792969 332.355469 888.523438 286.0625 889.214844 275.242188 C 889.484375 270.960938 890.105469 270.972656 895.9375 271.425781 C 901.863281 271.886719 903.15625 273.234375 902.753906 277.585938 "/>
<path style=" stroke:none;fill-rule:nonzero;fill:rgb(97.24884%,62.348938%,68.238831%);fill-opacity:1;" d="M 911.546875 192.796875 C 911.546875 188.417969 907.925781 186.683594 903.546875 186.683594 C 899.164062 186.683594 895.675781 188.417969 895.675781 192.796875 C 895.675781 192.796875 895.703125 194.539062 895.714844 195.730469 C 895.617188 195.714844 896.59375 205.210938 903.613281 205.210938 C 912.167969 205.210938 911.546875 192.796875 911.546875 192.796875 "/>
<path style=" stroke:none;fill-rule:nonzero;fill:rgb(45.098877%,81.568909%,79.60968%);fill-opacity:1;" d="M 915.75 213.828125 C 915.058594 210.023438 914.609375 207.992188 911.457031 207.992188 C 910.328125 207.992188 905.628906 207.992188 905.628906 207.992188 L 901.472656 207.992188 C 901.472656 207.992188 896.761719 207.992188 895.640625 207.992188 C 892.496094 207.992188 891.652344 209.78125 890.941406 213.539062 L 888.785156 264.128906 L 918.242188 264.128906 L 915.75 213.828125 "/>
<path style=" stroke:none;fill-rule:nonzero;fill:rgb(32.548523%,45.098877%,76.078796%);fill-opacity:1;" d="M 898.601562 233.683594 L 898.601562 220.40625 L 908.367188 220.40625 L 908.367188 233.683594 L 898.601562 233.683594 "/>
<path style=" stroke:none;fill-rule:nonzero;fill:rgb(97.24884%,62.348938%,68.238831%);fill-opacity:1;" d="M 901.574219 223.699219 C 901.574219 223.699219 897.453125 224.351562 897.058594 230.574219 L 888.722656 238.5625 L 898.074219 213.609375 C 898.769531 211.394531 897.132812 209.238281 895.394531 208.75 C 893.648438 208.261719 891.253906 208.972656 890.511719 211.328125 L 881.605469 245.199219 L 881.566406 245.34375 C 881.085938 247.058594 882.089844 248.851562 883.804688 249.332031 C 884.972656 249.664062 886.175781 249.304688 886.980469 248.503906 L 899.871094 233.210938 C 899.871094 233.210938 901.996094 232.601562 904.078125 228.761719 C 905.125 226.828125 904.765625 222.941406 901.574219 223.699219 "/>
<path style=" stroke:none;fill-rule:nonzero;fill:rgb(39.99939%,73.728943%,76.858521%);fill-opacity:1;" d="M 887.574219 219.21875 L 890.339844 210.804688 C 891.070312 208.578125 893.46875 207.371094 895.695312 208.097656 C 897.925781 208.832031 899.132812 211.226562 898.402344 213.453125 L 895.636719 221.867188 L 887.574219 219.21875 "/>
<path style=" stroke:none;fill-rule:nonzero;fill:rgb(97.24884%,62.348938%,68.238831%);fill-opacity:1;" d="M 925.726562 245.34375 L 925.683594 245.199219 L 916.78125 211.324219 C 916.039062 208.972656 913.644531 208.261719 911.898438 208.746094 C 910.15625 209.238281 908.519531 211.394531 909.21875 213.609375 L 918.566406 238.5625 L 910.179688 230.574219 C 909.785156 224.351562 905.664062 223.699219 905.664062 223.699219 C 902.472656 222.941406 902.121094 226.828125 903.167969 228.757812 C 905.246094 232.601562 907.371094 233.210938 907.371094 233.210938 L 920.3125 248.503906 C 921.113281 249.304688 922.316406 249.664062 923.484375 249.332031 C 925.203125 248.851562 926.207031 247.058594 925.726562 245.34375 "/>
<path style=" stroke:none;fill-rule:nonzero;fill:rgb(39.99939%,73.728943%,76.858521%);fill-opacity:1;" d="M 919.722656 219.21875 L 916.953125 210.804688 C 916.222656 208.578125 913.824219 207.367188 911.589844 208.097656 C 909.371094 208.832031 908.160156 211.226562 908.890625 213.453125 L 911.664062 221.867188 L 919.722656 219.21875 "/>
<path style=" stroke:none;fill-rule:nonzero;fill:rgb(97.24884%,62.348938%,68.238831%);fill-opacity:1;" d="M 906.855469 208.59375 C 906.855469 208.59375 906.070312 210.378906 903.554688 210.378906 C 901.371094 210.378906 900.242188 208.59375 900.242188 208.59375 L 900.242188 203.238281 L 906.855469 203.238281 L 906.855469 208.59375 "/>
<path style=" stroke:none;fill-rule:nonzero;fill:rgb(23.919678%,18.429565%,46.269226%);fill-opacity:1;" d="M 911.292969 188.917969 C 911.234375 188.652344 910.917969 187.542969 910.765625 187.304688 C 911.722656 185.902344 911.253906 184.597656 911.253906 184.597656 C 910.402344 185.597656 908.828125 185.789062 908.417969 185.628906 L 908.265625 185.570312 L 908.246094 185.558594 C 909.882812 184.96875 909.597656 182.929688 909.597656 182.929688 C 908.445312 184.585938 902.636719 184.789062 902.636719 184.789062 L 902.726562 184.816406 C 899.199219 184.96875 895.816406 186.246094 895.449219 188.832031 C 895.003906 191.980469 894.632812 193.515625 895.117188 195.757812 C 895.578125 197.875 896.164062 198.207031 896.164062 198.207031 C 896.359375 197.730469 896.953125 197.101562 897.074219 196.40625 C 897.324219 194.960938 897.628906 192.285156 898.273438 191.507812 C 898.878906 190.78125 901.199219 190.195312 903.554688 190.195312 C 906.28125 190.195312 908.269531 190.457031 909.011719 191.132812 C 909.75 191.800781 909.761719 196.105469 910.191406 197.371094 C 910.316406 197.726562 910.953125 198.414062 910.953125 198.414062 C 910.953125 198.414062 911.605469 197.1875 911.804688 196.332031 C 912.308594 194.179688 911.695312 190.671875 911.292969 188.917969 "/>
<path style=" stroke:none;fill-rule:nonzero;fill:rgb(32.548523%,45.098877%,76.078796%);fill-opacity:1;" d="M 1108.25 454.789062 L 1099.949219 454.789062 L 1099.949219 460.613281 L 1119.984375 460.613281 L 1108.25 454.789062 "/>
<path style=" stroke:none;fill-rule:nonzero;fill:rgb(32.548523%,45.098877%,76.078796%);fill-opacity:1;" d="M 1088.949219 454.789062 L 1097.246094 454.789062 L 1097.246094 460.613281 L 1077.214844 460.613281 L 1088.949219 454.789062 "/>
<path style=" stroke:none;fill-rule:nonzero;fill:rgb(96.859741%,57.249451%,65.879822%);fill-opacity:1;" d="M 1092.316406 308.921875 L 1092.28125 308.945312 L 1092.316406 308.921875 "/>
<path style=" stroke:none;fill-rule:nonzero;fill:rgb(61.959839%,49.409485%,77.648926%);fill-opacity:1;" d="M 1106.089844 300.058594 C 1105.066406 300.058594 1100.773438 300.058594 1100.773438 300.058594 L 1096.988281 300.058594 C 1096.988281 300.058594 1092.695312 300.058594 1091.675781 300.058594 C 1088.378906 300.058594 1087.640625 302.234375 1087.640625 306.824219 C 1087.640625 310.765625 1083.339844 359.03125 1083.339844 359.03125 L 1114.425781 359.03125 L 1110.839844 307.558594 C 1110.839844 302.972656 1109.378906 300.058594 1106.089844 300.058594 "/>
<path style=" stroke:none;fill-rule:nonzero;fill:rgb(96.078491%,47.059631%,59.999084%);fill-opacity:1;" d="M 1102.605469 300.058594 C 1102.605469 300.058594 1101.101562 300.519531 1098.789062 300.519531 C 1096.765625 300.519531 1095.148438 300.058594 1095.148438 300.058594 L 1095.15625 295.199219 L 1102.609375 295.199219 L 1102.605469 300.058594 "/>
<path style=" stroke:none;fill-rule:nonzero;fill:rgb(23.919678%,18.429565%,46.269226%);fill-opacity:1;" d="M 1114.421875 359.03125 L 1083.339844 359.03125 L 1087.230469 455.371094 L 1098.167969 455.371094 L 1098.066406 374.582031 L 1099.382812 374.605469 L 1099.246094 455.371094 L 1109.671875 455.371094 L 1114.421875 359.03125 "/>
<path style=" stroke:none;fill-rule:nonzero;fill:rgb(97.24884%,62.348938%,68.238831%);fill-opacity:1;" d="M 1140.640625 260.164062 L 1129.667969 289.535156 C 1129.667969 289.535156 1114.476562 305.25 1112.390625 306.851562 C 1111.347656 307.648438 1110.292969 308.414062 1109.214844 309.132812 C 1108.671875 309.488281 1108.128906 309.832031 1107.589844 310.160156 L 1106.785156 310.632812 C 1106.527344 310.78125 1106.226562 310.941406 1106.050781 311.035156 L 1105.898438 311.109375 C 1103.933594 312.171875 1103.203125 314.625 1104.265625 316.585938 C 1105.332031 318.554688 1107.789062 319.277344 1109.753906 318.214844 L 1109.789062 318.199219 C 1110.222656 317.960938 1110.53125 317.777344 1110.878906 317.566406 C 1111.214844 317.363281 1111.535156 317.160156 1111.859375 316.949219 C 1112.496094 316.535156 1113.121094 316.109375 1113.726562 315.675781 C 1114.953125 314.808594 1116.132812 313.898438 1117.28125 312.953125 C 1119.566406 311.074219 1136.914062 293.277344 1136.914062 293.277344 L 1144.753906 260.164062 L 1140.640625 260.164062 "/>
<g clip-path="url(#clip6)" clip-rule="nonzero">
<path style=" stroke:none;fill-rule:nonzero;fill:rgb(97.24884%,62.348938%,68.238831%);fill-opacity:1;" d="M 1146.328125 255.753906 C 1146.332031 254.097656 1144.742188 252.265625 1143.34375 252.503906 C 1141.902344 252.753906 1142.789062 255.492188 1141.296875 255.101562 C 1139.636719 254.664062 1139.902344 258.625 1140.617188 260.398438 L 1144.535156 260.890625 C 1144.535156 260.890625 1146.3125 259.785156 1146.328125 255.753906 "/>
</g>
<path style=" stroke:none;fill-rule:nonzero;fill:rgb(61.959839%,49.409485%,77.648926%);fill-opacity:1;" d="M 1129.683594 289.507812 L 1129.667969 289.535156 C 1129.667969 289.535156 1114.476562 305.25 1112.390625 306.851562 C 1111.347656 307.648438 1110.292969 308.414062 1109.214844 309.132812 C 1108.671875 309.488281 1108.128906 309.832031 1107.589844 310.160156 L 1106.785156 310.632812 C 1106.527344 310.78125 1106.226562 310.941406 1106.050781 311.035156 L 1105.898438 311.109375 C 1103.933594 312.171875 1103.203125 314.625 1104.265625 316.585938 C 1105.332031 318.554688 1108.835938 320.132812 1108.835938 320.132812 C 1109.269531 319.894531 1112.722656 317.191406 1117.28125 312.953125 C 1119.144531 311.226562 1132.296875 298.003906 1135.949219 294.257812 C 1134.058594 292.425781 1131.875 290.960938 1129.683594 289.507812 "/>
<path style=" stroke:none;fill-rule:nonzero;fill:rgb(97.24884%,62.348938%,68.238831%);fill-opacity:1;" d="M 1057.625 260.164062 L 1068.59375 289.535156 C 1068.59375 289.535156 1083.789062 305.25 1085.871094 306.851562 C 1086.914062 307.648438 1087.972656 308.414062 1089.046875 309.132812 C 1089.589844 309.488281 1090.132812 309.832031 1090.675781 310.160156 L 1091.484375 310.632812 C 1091.734375 310.78125 1092.039062 310.941406 1092.214844 311.035156 L 1092.363281 311.109375 C 1094.332031 312.171875 1095.058594 314.625 1093.996094 316.585938 C 1092.933594 318.554688 1090.476562 319.277344 1088.511719 318.214844 L 1088.476562 318.199219 C 1088.039062 317.960938 1087.730469 317.777344 1087.382812 317.566406 C 1087.054688 317.363281 1086.722656 317.160156 1086.410156 316.949219 C 1085.765625 316.535156 1085.148438 316.109375 1084.53125 315.675781 C 1083.3125 314.808594 1082.132812 313.898438 1080.984375 312.953125 C 1078.699219 311.074219 1061.355469 293.277344 1061.355469 293.277344 L 1053.507812 260.164062 L 1057.625 260.164062 "/>
<path style=" stroke:none;fill-rule:nonzero;fill:rgb(97.24884%,62.348938%,68.238831%);fill-opacity:1;" d="M 1051.933594 255.753906 C 1051.929688 254.097656 1053.519531 252.265625 1054.921875 252.503906 C 1056.359375 252.753906 1055.476562 255.492188 1056.964844 255.101562 C 1058.625 254.664062 1058.359375 258.625 1057.644531 260.398438 L 1053.730469 260.890625 C 1053.730469 260.890625 1051.953125 259.785156 1051.933594 255.753906 "/>
<path style=" stroke:none;fill-rule:nonzero;fill:rgb(61.959839%,49.409485%,77.648926%);fill-opacity:1;" d="M 1068.585938 289.507812 L 1068.59375 289.535156 C 1068.59375 289.535156 1083.789062 305.25 1085.871094 306.851562 C 1086.914062 307.648438 1087.972656 308.414062 1089.046875 309.132812 C 1089.589844 309.488281 1090.132812 309.832031 1090.675781 310.160156 L 1091.484375 310.632812 C 1091.734375 310.78125 1092.039062 310.941406 1092.214844 311.035156 L 1092.363281 311.109375 C 1094.332031 312.171875 1095.058594 314.625 1093.996094 316.585938 C 1092.933594 318.554688 1089.425781 320.132812 1089.425781 320.132812 C 1088.996094 319.894531 1085.546875 317.191406 1080.984375 312.953125 C 1079.125 311.226562 1065.972656 298.003906 1062.3125 294.257812 C 1064.207031 292.425781 1066.390625 290.960938 1068.585938 289.507812 "/>
<path style=" stroke:none;fill-rule:nonzero;fill:rgb(23.919678%,18.429565%,46.269226%);fill-opacity:1;" d="M 1112.164062 298.085938 C 1109.769531 293.71875 1108.699219 283.964844 1108.699219 283.964844 L 1108.699219 279.488281 C 1108.699219 274.800781 1104.316406 271 1098.90625 271 C 1093.5 271 1089.121094 274.800781 1089.121094 279.488281 L 1089.121094 283.964844 C 1089.121094 283.964844 1088.660156 292.296875 1086.398438 296.738281 C 1082.917969 303.582031 1089.441406 309.703125 1085.136719 318.878906 C 1083.277344 322.859375 1089.109375 328.675781 1098.914062 328.675781 C 1109.351562 328.675781 1115.90625 322.6875 1112.601562 317.382812 C 1110.105469 313.355469 1114.5625 302.449219 1112.164062 298.085938 "/>
<path style=" stroke:none;fill-rule:nonzero;fill:rgb(23.919678%,18.429565%,46.269226%);fill-opacity:1;" d="M 1007.984375 386.160156 C 1009.320312 384.132812 1008.1875 375.082031 1007.996094 371.398438 C 1007.683594 365.382812 1002.351562 361.570312 997.828125 361.570312 C 992.214844 361.570312 988.046875 365.984375 987.660156 371.398438 C 987.398438 375.078125 985.984375 383.144531 987.667969 386.160156 C 990.152344 390.585938 1005.1875 390.394531 1007.984375 386.160156 "/>
<path style=" stroke:none;fill-rule:nonzero;fill:rgb(97.24884%,62.348938%,68.238831%);fill-opacity:1;" d="M 1005.386719 371.714844 C 1005.386719 367.332031 1001.832031 363.789062 997.453125 363.789062 C 993.070312 363.789062 989.519531 367.332031 989.519531 371.714844 C 989.519531 371.714844 989.546875 373.457031 989.554688 374.648438 C 989.457031 374.632812 990.429688 384.132812 997.453125 384.132812 C 1006.011719 384.132812 1005.386719 371.714844 1005.386719 371.714844 "/>
<path style=" stroke:none;fill-rule:nonzero;fill:rgb(23.919678%,18.429565%,46.269226%);fill-opacity:1;" d="M 1006.089844 374.546875 L 1007.59375 374.546875 C 1007.429688 372.273438 1007.082031 362.25 997.429688 362.25 C 992.558594 362.25 988.601562 366.085938 988.601562 370.820312 C 988.601562 370.820312 988.359375 374.3125 988.601562 374.570312 C 995.132812 374.398438 1000.199219 371.175781 1001.675781 369.691406 C 1002.277344 370.917969 1005.335938 373.839844 1006.089844 374.546875 "/>
<path style=" stroke:none;fill-rule:nonzero;fill:rgb(38.42926%,16.468811%,58.428955%);fill-opacity:1;" d="M 1009.589844 392.746094 C 1008.902344 388.941406 1008.449219 386.910156 1005.292969 386.910156 C 1004.167969 386.910156 999.464844 386.910156 999.464844 386.910156 L 995.3125 386.910156 C 995.3125 386.910156 990.601562 386.910156 989.484375 386.910156 C 986.339844 386.910156 985.492188 388.699219 984.78125 392.457031 L 982.6875 442.109375 L 1012.082031 441.945312 L 1009.589844 392.746094 "/>
<path style=" stroke:none;fill-rule:nonzero;fill:rgb(17.248535%,12.939453%,32.939148%);fill-opacity:1;" d="M 982.691406 441.523438 L 982.5625 453.902344 C 982.5625 456.890625 984.984375 459.316406 987.980469 459.316406 L 1006.539062 459.316406 C 1009.53125 459.316406 1011.953125 456.890625 1011.953125 453.902344 L 1012.082031 441.523438 L 982.691406 441.523438 "/>
<path style=" stroke:none;fill-rule:nonzero;fill:rgb(23.919678%,18.429565%,46.269226%);fill-opacity:1;" d="M 992.441406 412.601562 L 992.441406 399.324219 L 1002.207031 399.324219 L 1002.207031 412.601562 L 992.441406 412.601562 "/>
<path style=" stroke:none;fill-rule:nonzero;fill:rgb(96.078491%,47.059631%,59.999084%);fill-opacity:1;" d="M 993.203125 404.003906 C 993.203125 404.003906 989.078125 404.65625 988.6875 410.882812 L 980.351562 418.867188 L 989.703125 393.917969 C 990.398438 391.703125 988.761719 389.542969 987.015625 389.058594 C 985.277344 388.566406 982.882812 389.277344 982.136719 391.636719 L 973.234375 425.503906 L 973.195312 425.648438 C 972.714844 427.367188 973.710938 429.15625 975.433594 429.640625 C 976.601562 429.96875 977.804688 429.613281 978.609375 428.808594 L 991.5 413.519531 C 991.5 413.519531 993.625 412.910156 995.699219 409.066406 C 996.746094 407.132812 996.394531 403.246094 993.203125 404.003906 "/>
<path style=" stroke:none;fill-rule:nonzero;fill:rgb(30.589294%,12.939453%,45.098877%);fill-opacity:1;" d="M 979.199219 399.523438 L 981.96875 391.109375 C 982.695312 388.882812 985.097656 387.679688 987.320312 388.40625 C 989.554688 389.136719 990.761719 391.535156 990.027344 393.757812 L 987.261719 402.171875 L 979.199219 399.523438 "/>
<path style=" stroke:none;fill-rule:nonzero;fill:rgb(96.859741%,57.249451%,65.879822%);fill-opacity:1;" d="M 1020.945312 425.289062 L 1020.902344 425.148438 L 1012 391.273438 C 1011.257812 388.917969 1008.859375 388.207031 1007.117188 388.699219 C 1005.371094 389.1875 1003.738281 391.347656 1004.4375 393.5625 L 1013.78125 418.507812 L 1005.394531 410.523438 C 1005.003906 404.296875 1000.878906 403.644531 1000.878906 403.644531 C 997.691406 402.890625 997.339844 406.777344 998.386719 408.707031 C 1000.460938 412.554688 1002.585938 413.160156 1002.585938 413.160156 L 1015.53125 428.453125 C 1016.328125 429.253906 1017.53125 429.609375 1018.703125 429.28125 C 1020.425781 428.796875 1021.429688 427.011719 1020.945312 425.289062 "/>
<path style=" stroke:none;fill-rule:nonzero;fill:rgb(30.589294%,12.939453%,45.098877%);fill-opacity:1;" d="M 1014.9375 399.164062 L 1012.167969 390.753906 C 1011.4375 388.527344 1009.042969 387.316406 1006.8125 388.050781 C 1004.585938 388.777344 1003.378906 391.179688 1004.109375 393.402344 L 1006.878906 401.8125 L 1014.9375 399.164062 "/>
<path style=" stroke:none;fill-rule:nonzero;fill:rgb(34.509277%,47.059631%,76.858521%);fill-opacity:1;" d="M 1003.882812 454.90625 L 1018.0625 454.90625 C 1020.230469 454.90625 1021.988281 456.65625 1021.988281 458.820312 C 1021.988281 460.988281 1020.230469 462.738281 1018.0625 462.738281 L 1003.882812 462.738281 L 1003.882812 454.90625 "/>
<path style=" stroke:none;fill-rule:nonzero;fill:rgb(19.60907%,14.898682%,37.649536%);fill-opacity:1;" d="M 1008.074219 462.738281 L 1010.277344 455.449219 L 970.074219 439.039062 C 966.289062 437.476562 965.527344 437.097656 963.179688 442.695312 C 961.152344 447.523438 960.648438 449.109375 963.546875 450.066406 L 998.90625 462.738281 L 1008.074219 462.738281 "/>
<path style=" stroke:none;fill-rule:nonzero;fill:rgb(34.509277%,47.059631%,76.858521%);fill-opacity:1;" d="M 988.136719 454.90625 L 975.511719 454.90625 C 973.347656 454.90625 971.589844 456.65625 971.589844 458.820312 C 971.589844 460.988281 973.347656 462.738281 975.511719 462.738281 L 988.136719 462.738281 L 988.136719 454.90625 "/>
<path style=" stroke:none;fill-rule:nonzero;fill:rgb(23.919678%,18.429565%,46.269226%);fill-opacity:1;" d="M 1030.261719 450.3125 L 986.085938 454.296875 L 986.085938 462.652344 C 986.085938 462.652344 1021.914062 463.21875 1032.726562 462.304688 C 1037.003906 461.945312 1036.8125 461.265625 1035.902344 455.5 C 1034.953125 449.46875 1034.605469 449.824219 1030.261719 450.3125 "/>
<path style=" stroke:none;fill-rule:nonzero;fill:rgb(97.24884%,62.348938%,68.238831%);fill-opacity:1;" d="M 1000.695312 387.507812 C 1000.695312 387.507812 999.910156 389.296875 997.398438 389.296875 C 995.214844 389.296875 994.082031 387.507812 994.082031 387.507812 L 994.082031 382.15625 L 1000.695312 382.15625 L 1000.695312 387.507812 "/>
<path style=" stroke:none;fill-rule:nonzero;fill:rgb(32.548523%,45.098877%,76.078796%);fill-opacity:1;" d="M 792.746094 307.085938 C 794.175781 307.085938 796.023438 307.085938 796.023438 307.085938 L 801.304688 307.085938 C 801.304688 307.085938 803.332031 307.085938 804.765625 307.085938 C 809.371094 307.085938 811.203125 316.691406 811.203125 319.390625 C 811.203125 330.933594 812.65625 369.070312 812.65625 369.070312 L 782.460938 369.070312 C 782.460938 321.265625 783.890625 329.074219 783.890625 320.757812 C 783.890625 315.164062 785.320312 308.859375 789.171875 307.320312 C 789.757812 307.089844 792.136719 307.085938 792.746094 307.085938 "/>
<path style=" stroke:none;fill-rule:nonzero;fill:rgb(97.24884%,62.348938%,68.238831%);fill-opacity:1;" d="M 792.753906 307.253906 C 792.753906 307.253906 793.671875 309.351562 796.628906 309.351562 C 799.191406 309.351562 800.519531 307.253906 800.519531 307.253906 L 800.519531 302.4375 L 792.753906 302.4375 L 792.753906 307.253906 "/>
<path style=" stroke:none;fill-rule:nonzero;fill:rgb(96.859741%,57.249451%,65.879822%);fill-opacity:1;" d="M 802.085938 302.898438 L 802.144531 302.867188 L 802.085938 302.898438 "/>
<path style=" stroke:none;fill-rule:nonzero;fill:rgb(96.859741%,57.249451%,65.879822%);fill-opacity:1;" d="M 800.695312 303.65625 L 800.707031 303.648438 L 800.695312 303.65625 "/>
<path style=" stroke:none;fill-rule:nonzero;fill:rgb(96.859741%,57.249451%,65.879822%);fill-opacity:1;" d="M 801.316406 303.355469 L 801.542969 303.234375 L 801.316406 303.355469 "/>
<path style=" stroke:none;fill-rule:nonzero;fill:rgb(97.24884%,62.348938%,68.238831%);fill-opacity:1;" d="M 788.363281 295.96875 C 788.363281 300.6875 792.195312 304.507812 796.914062 304.507812 C 801.636719 304.507812 805.464844 300.6875 805.464844 295.96875 L 805.464844 291.214844 C 805.464844 286.496094 801.636719 282.675781 796.914062 282.675781 C 792.195312 282.675781 788.363281 286.496094 788.363281 291.214844 L 788.363281 295.96875 "/>
<path style=" stroke:none;fill-rule:nonzero;fill:rgb(23.919678%,18.429565%,46.269226%);fill-opacity:1;" d="M 803.199219 298.484375 C 803.179688 298.847656 802.667969 299.359375 802.042969 298.949219 C 799.886719 297.53125 795.601562 296.03125 791.207031 299.074219 C 790.488281 299.570312 789.816406 298.714844 789.660156 298.179688 C 789.441406 297.4375 789.324219 296.617188 789.324219 295.738281 C 789.316406 294.152344 789.296875 291.378906 789.296875 291.378906 C 789.296875 291.378906 789.285156 291.117188 789.292969 290.980469 C 790.207031 291.167969 790.878906 291.269531 792.164062 291.269531 C 796.027344 291.269531 798.773438 289.3125 800.847656 289.289062 C 802.523438 289.261719 803.203125 289.523438 803.203125 290.527344 C 803.203125 291.003906 803.203125 293.3125 803.203125 294.761719 C 803.203125 295.28125 803.203125 295.695312 803.203125 295.871094 C 803.203125 296.683594 803.199219 298.394531 803.199219 298.484375 Z M 796.785156 303.132812 C 794.847656 303.132812 791.953125 302.238281 791.953125 301.117188 C 791.953125 300.519531 794.539062 299 796.75 299 C 799.707031 299 801.707031 300.574219 801.707031 301.25 C 801.707031 302.1875 799.46875 303.132812 796.785156 303.132812 Z M 796.433594 280.804688 C 791.734375 280.804688 789.636719 283.046875 789.636719 283.046875 C 787.957031 284.097656 786.289062 287.878906 787.1875 290.523438 C 787.625 291.796875 787.355469 296.226562 787.367188 296.21875 C 787.628906 301.171875 791.71875 305.117188 796.742188 305.117188 C 801.722656 305.117188 805.792969 301.234375 806.109375 296.339844 L 806.140625 296.320312 L 806.140625 290.007812 C 806.140625 284.84375 801.136719 280.804688 796.433594 280.804688 "/>
<path style=" stroke:none;fill-rule:nonzero;fill:rgb(32.548523%,45.098877%,76.078796%);fill-opacity:1;" d="M 806.859375 464.085938 L 798.789062 464.085938 L 798.789062 469.746094 L 818.257812 469.746094 L 806.859375 464.085938 "/>
<path style=" stroke:none;fill-rule:nonzero;fill:rgb(32.548523%,45.098877%,76.078796%);fill-opacity:1;" d="M 788.101562 464.085938 L 796.164062 464.085938 L 796.164062 469.746094 L 776.699219 469.746094 L 788.101562 464.085938 "/>
<path style=" stroke:none;fill-rule:nonzero;fill:rgb(23.919678%,18.429565%,46.269226%);fill-opacity:1;" d="M 812.65625 369.070312 L 782.460938 369.070312 L 786.433594 464.65625 L 797.058594 464.65625 L 796.964844 386.164062 L 798.238281 386.183594 L 798.105469 464.65625 L 808.242188 464.65625 L 812.65625 369.070312 "/>
<path style=" stroke:none;fill-rule:nonzero;fill:rgb(97.24884%,62.348938%,68.238831%);fill-opacity:1;" d="M 783.660156 371.417969 C 784.792969 372.644531 787.53125 372.757812 788.335938 371.578125 C 789.164062 370.359375 786.554688 369.085938 787.886719 368.277344 C 789.363281 367.375 785.882812 365.085938 784.09375 364.367188 L 781.683594 366.59375 C 781.683594 366.59375 781.078125 368.636719 783.660156 371.417969 "/>
<path style=" stroke:none;fill-rule:nonzero;fill:rgb(97.24884%,62.348938%,68.238831%);fill-opacity:1;" d="M 773.648438 339.523438 L 764.296875 339.523438 L 762.988281 341.339844 L 781.683594 366.59375 L 784.617188 364.597656 L 772.332031 341.28125 L 773.648438 339.523438 "/>
<path style=" stroke:none;fill-rule:nonzero;fill:rgb(32.548523%,45.098877%,76.078796%);fill-opacity:1;" d="M 772.578125 340.949219 L 788.667969 319.46875 C 790.136719 317.757812 793.519531 307.394531 791.273438 307.191406 C 788.859375 306.972656 784.601562 307.355469 782.46875 309.875 C 777.136719 316.160156 763.269531 340.949219 763.269531 340.949219 L 772.578125 340.949219 "/>
<path style=" stroke:none;fill-rule:nonzero;fill:rgb(97.24884%,62.348938%,68.238831%);fill-opacity:1;" d="M 811.980469 371.367188 C 810.84375 372.59375 808.105469 372.707031 807.296875 371.527344 C 806.472656 370.308594 809.082031 369.035156 807.753906 368.230469 C 806.277344 367.324219 809.753906 365.035156 811.542969 364.316406 L 813.953125 366.539062 C 813.953125 366.539062 814.558594 368.585938 811.980469 371.367188 "/>
<path style=" stroke:none;fill-rule:nonzero;fill:rgb(97.24884%,62.348938%,68.238831%);fill-opacity:1;" d="M 821.988281 339.46875 L 831.34375 339.46875 L 832.648438 341.289062 L 813.953125 366.539062 L 811.023438 364.542969 L 823.304688 341.230469 L 821.988281 339.46875 "/>
<path style=" stroke:none;fill-rule:nonzero;fill:rgb(32.548523%,45.098877%,76.078796%);fill-opacity:1;" d="M 823.058594 340.898438 L 806.96875 319.417969 C 805.503906 317.707031 802.117188 307.34375 804.367188 307.140625 C 806.777344 306.917969 811.03125 307.304688 813.167969 309.824219 C 818.5 316.105469 832.371094 340.898438 832.371094 340.898438 L 823.058594 340.898438 "/>
<path style=" stroke:none;fill-rule:nonzero;fill:rgb(93.728638%,17.248535%,51.759338%);fill-opacity:1;" d="M 1050.761719 320.027344 L 1008.875 320.027344 C 1007.285156 320.027344 1006 321.316406 1006 322.910156 L 1006 348.839844 C 1006 350.429688 1007.285156 351.71875 1008.875 351.71875 L 1018.402344 351.71875 L 1013.925781 359.484375 L 1027.984375 351.71875 L 1050.761719 351.71875 C 1052.347656 351.71875 1053.636719 350.429688 1053.636719 348.839844 L 1053.636719 322.910156 C 1053.636719 321.316406 1052.347656 320.027344 1050.761719 320.027344 "/>
<g clip-path="url(#clip7)" clip-rule="nonzero">
<path style=" stroke:none;fill-rule:nonzero;fill:rgb(38.42926%,16.468811%,58.428955%);fill-opacity:1;" d="M 940.554688 149.992188 C 927.425781 149.992188 916.78125 159.675781 916.78125 171.628906 C 916.78125 179.679688 921.613281 186.707031 928.785156 190.429688 L 924.316406 200.949219 L 939.894531 193.257812 C 940.113281 193.265625 940.335938 193.265625 940.554688 193.265625 C 953.6875 193.265625 964.332031 183.582031 964.332031 171.628906 C 964.332031 159.675781 953.6875 149.992188 940.554688 149.992188 "/>
</g>
</g>
</svg>
